<svg xmlns="http://www.w3.org/2000/svg" viewBox="0 0 173 228" width="173" height="228">
	<defs>
		<linearGradient id="grd1" gradientUnits="userSpaceOnUse"  x1="86.181" y1="0.521" x2="86.181" y2="148.474">
			<stop offset="0" stop-color="#ce5d47"  />
			<stop offset="0.255" stop-color="#f2c94c"  />
			<stop offset="0.646" stop-color="#83b17e"  />
			<stop offset="1" stop-color="#5c95cd"  />
		</linearGradient>
		<linearGradient id="grd2" gradientUnits="userSpaceOnUse"  x1="87.82" y1="7.135" x2="-2.203" y2="212.701">
			<stop offset="0" stop-color="#cf6446"  />
			<stop offset="0.375" stop-color="#f2c94c"  />
			<stop offset="0.656" stop-color="#97c254"  />
			<stop offset="1" stop-color="#50a7d0"  />
		</linearGradient>
		<linearGradient id="grd3" gradientUnits="userSpaceOnUse"  x1="86.181" y1="55.734" x2="86.181" y2="167.711">
			<stop offset="0" stop-color="#cc5c47"  />
			<stop offset="0.417" stop-color="#b3ce47"  />
			<stop offset="1" stop-color="#619cd1"  />
		</linearGradient>
		<linearGradient id="grd4" gradientUnits="userSpaceOnUse"  x1="87.82" y1="78.838" x2="87.82" y2="226.791">
			<stop offset="0" stop-color="#e5e5e5"  />
			<stop offset="1" stop-color="#e5e5e5" stop-opacity="0" />
		</linearGradient>
	</defs>
	<style>
		tspan { white-space:pre }
		.shp0 { fill: url(#grd1) } 
		.shp1 { fill: url(#grd2) } 
		.shp2 { opacity: 0.4;fill: url(#grd3) } 
		.shp3 { opacity: 0.4;fill: url(#grd4) }
		.shp4 { fill: #161544 }
		.shp4a { fill: #23224e }
	</style>
	<path id="Layer" fill-rule="evenodd" class="shp0" d="M-0.33 0.52L-0.33 31.27C-0.33 48.22 13.46 62.01 30.42 62.01L93.5 62.01L119.06 47.25L30.42 47.25C21.6 47.25 14.43 40.08 14.43 31.27L14.43 15.28L141.91 15.28C150.94 15.28 155.8 21.38 157.34 27.1C158.89 32.81 157.76 40.53 149.96 45.08L16.6 122.75C7.19 128.24 1.61 137.5 1.31 148.15C1.3 148.26 1.31 148.37 1.31 148.47L157.39 57.83C169.56 50.74 175.26 36.84 171.59 23.25C168.03 10.07 156.71 1.11 143.19 0.57C142.91 0.54 142.63 0.52 142.34 0.52L-0.33 0.52Z" />
	<path id="Layer" fill-rule="evenodd" class="shp1" d="M16.61 169.48C4.44 176.57 -1.26 190.47 2.41 204.06C5.97 217.24 17.29 226.2 30.81 226.74C31.09 226.77 31.37 226.79 31.66 226.79L174.33 226.79L174.33 196.05C174.33 179.09 160.54 165.31 143.58 165.31L80.5 165.31L54.94 180.06L143.58 180.06C152.4 180.06 159.57 187.23 159.57 196.05L159.57 212.03L32.09 212.03C23.07 212.03 18.2 205.93 16.66 200.22C15.11 194.5 16.24 186.78 24.04 182.23L157.4 104.56C166.81 99.07 172.39 89.82 172.69 79.16C172.7 79.05 172.69 78.95 172.69 78.84L16.61 169.48Z" />
	<path id="Layer" fill-rule="evenodd" class="shp2" d="M-0.33 0.52L-0.33 31.27C-0.33 48.22 13.46 62.01 30.42 62.01L93.5 62.01L119.06 47.25L30.42 47.25C21.6 47.25 14.43 40.08 14.43 31.27L14.43 15.28L141.91 15.28C150.94 15.28 155.8 21.38 157.34 27.1C158.89 32.81 157.76 40.53 149.96 45.08L16.6 122.75C7.19 128.24 1.61 137.5 1.31 148.15C1.3 148.26 1.31 148.37 1.31 148.47L157.39 57.83C169.56 50.74 175.26 36.84 171.59 23.25C168.03 10.07 156.71 1.11 143.19 0.57C142.91 0.54 142.63 0.52 142.34 0.52L-0.33 0.52Z" />
	<path id="Layer" fill-rule="evenodd" class="shp3" d="M16.61 169.48C4.44 176.57 -1.26 190.47 2.41 204.06C5.97 217.24 17.29 226.2 30.81 226.74C31.09 226.77 31.37 226.79 31.66 226.79L174.33 226.79L174.33 196.05C174.33 179.09 160.54 165.31 143.58 165.31L80.5 165.31L54.94 180.06L143.58 180.06C152.4 180.06 159.57 187.23 159.57 196.05L159.57 212.03L32.09 212.03C23.07 212.03 18.2 205.93 16.66 200.22C15.11 194.5 16.24 186.78 24.04 182.23L157.4 104.56C166.81 99.07 172.39 89.82 172.69 79.16C172.7 79.05 172.69 78.95 172.69 78.84L16.61 169.48Z" />
	<path id="Layer" class="shp4a" d="M104.25 141.4L248.99 141.4L248.99 248.57L104.25 248.57L104.25 141.4Z" />
	<path id="Layer" class="shp4" d="M-41 -40.46L103.74 -40.46L103.74 66.72L-41 66.72L-41 -40.46Z" />
</svg>