<svg width="62" height="48" viewBox="0 0 62 48" fill="none" xmlns="http://www.w3.org/2000/svg">
    <path d="M31.3326 17.4928C32.3488 17.4928 33.3171 17.7052 34.1976 18.0873C34.2635 16.6507 34.7587 15.3223 35.553 14.2226C34.9938 14.1057 34.4169 14.0435 33.8262 14.0435H28.2295C27.6401 14.0435 27.0632 14.105 26.5083 14.2207C27.3548 15.3952 27.8606 16.8286 27.8688 18.3808C28.8975 17.8152 30.0777 17.4928 31.3326 17.4928Z" fill="white"/>
    <path d="M31.0272 13.5935C34.67 13.5935 37.623 10.6404 37.623 6.99767C37.623 3.3549 34.67 0.401855 31.0272 0.401855C27.3844 0.401855 24.4314 3.3549 24.4314 6.99767C24.4314 10.6404 27.3844 13.5935 31.0272 13.5935Z" fill="white"/>
    <path d="M41.3868 24.8478C44.7438 24.8478 47.4635 22.1268 47.4635 18.7711C47.4635 15.4141 44.7438 12.6943 41.3868 12.6943C38.0612 12.6943 35.3647 15.3657 35.3145 18.6793C37.2305 19.8809 38.574 21.9131 38.8191 24.2722C39.5996 24.6379 40.4674 24.8478 41.3868 24.8478Z" fill="white"/>
    <path d="M20.6689 12.6938C17.3113 12.6938 14.5916 15.4142 14.5916 18.7706C14.5916 22.1269 17.3113 24.8467 20.6689 24.8467C21.8579 24.8467 22.9633 24.4992 23.9009 23.9091C24.1993 21.9667 25.2406 20.2681 26.7281 19.1118C26.7344 18.9981 26.745 18.8856 26.745 18.7706C26.745 15.4142 24.024 12.6938 20.6689 12.6938Z" fill="white"/>
    <path d="M45.3335 12.5649C47.2495 13.7665 48.5931 15.7987 48.8375 18.1584C49.6174 18.5235 50.4858 18.7341 51.4052 18.7341C54.7622 18.7341 57.482 16.0137 57.482 12.6573C57.482 9.30096 54.7622 6.58057 51.4052 6.58057C48.0803 6.57994 45.3838 9.25195 45.3335 12.5649Z" fill="white"/>
    <path d="M43.9654 25.2622H38.8476C38.7916 27.3096 37.9182 29.1533 36.5356 30.4787C40.3488 31.6136 43.1396 35.1503 43.1396 39.328V41.271C48.1921 41.0844 51.1041 39.6541 51.2958 39.5561L51.7017 39.3499H51.7439V33.0432C51.7451 28.7524 48.2549 25.2622 43.9654 25.2622Z" fill="white"/>
    <path d="M53.9837 19.1479H48.8672C48.8119 21.1953 47.9378 23.0391 46.5559 24.3644C50.3691 25.4993 53.1593 29.0354 53.1593 33.2131V35.1561C58.2111 34.9701 61.1238 33.5398 61.3154 33.4412L61.7214 33.2357H61.7647V26.9289C61.7647 22.6388 58.2745 19.1479 53.9837 19.1479Z" fill="white"/>
    <path d="M26.1271 30.4782C24.7515 29.1591 23.8805 27.3254 23.8164 25.2913C23.6273 25.2774 23.4394 25.2617 23.2458 25.2617H18.091C13.8002 25.2617 10.3093 28.7525 10.3093 33.0433V39.3507L10.325 39.4481L10.7593 39.5851C14.044 40.6113 16.9762 41.0826 19.5218 41.2322V39.3275C19.5231 35.1504 22.3126 31.6137 26.1271 30.4782Z" fill="white"/>
    <path d="M31.3327 31.122C34.6892 31.122 37.4101 28.4011 37.4101 25.0447C37.4101 21.6882 34.6892 18.9673 31.3327 18.9673C27.9763 18.9673 25.2554 21.6882 25.2554 25.0447C25.2554 28.4011 27.9763 31.122 31.3327 31.122Z" fill="white"/>
    <path d="M33.9105 31.5366H28.7538C24.463 31.5366 20.9722 35.0287 20.9722 39.3176V45.625L20.9885 45.7237L21.4221 45.8594C25.5168 47.1382 29.0743 47.5655 32.0014 47.5655C37.7206 47.5655 41.0349 45.9348 41.2397 45.8311L41.6457 45.625H41.6884V39.3176C41.6903 35.0275 38.2001 31.5366 33.9105 31.5366Z" fill="white"/>
    <path d="M10.5603 18.9271C11.4797 18.9271 12.3475 18.7166 13.128 18.3514C13.3731 15.9918 14.716 13.9588 16.632 12.7573C16.5817 9.44496 13.8852 6.77295 10.5603 6.77295C7.20268 6.77295 4.48291 9.49335 4.48291 12.8503C4.48291 16.2067 7.20268 18.9271 10.5603 18.9271Z" fill="white"/>
    <path d="M15.4095 24.5585C14.0283 23.2332 13.1541 21.3888 13.0988 19.3408H7.98168C3.69088 19.3414 0.200684 22.8323 0.200684 27.1224V33.4298H0.244044L0.649998 33.6353C0.842292 33.7321 3.75373 35.1642 8.80616 35.3496V33.4066C8.80616 29.2295 11.5957 25.6928 15.4095 24.5585Z" fill="white"/>
    <path d="M17.6686 12.0934C18.3975 11.798 19.5098 11.4354 20.5718 11.4354C21.8079 11.4354 23.017 11.7534 24.0953 12.3586C24.3354 12.1229 24.5553 11.8665 24.7552 11.5919C23.7308 10.2465 23.1716 8.59751 23.1716 6.90143C23.1716 5.75897 23.4267 4.62532 23.9131 3.59535C22.8058 2.59492 21.3931 2.04883 19.8919 2.04883C17.1595 2.04883 14.781 3.89824 14.0847 6.50301C16.1258 7.69071 17.4555 9.76699 17.6686 12.0934Z" fill="white"/>
    <path d="M37.3506 11.2482C37.5617 11.5838 37.8087 11.8999 38.089 12.194C39.0869 11.6963 40.1841 11.4349 41.2888 11.4349C42.3754 11.4349 43.4166 11.7126 44.0991 11.9451C44.3128 9.42332 45.8379 7.19748 48.1209 6.06948C47.2839 3.67837 45.0178 2.04639 42.452 2.04639C40.793 2.04639 39.222 2.72759 38.0877 3.9266C38.4861 4.87675 38.6878 5.8753 38.6878 6.89899C38.6872 8.46687 38.226 9.96124 37.3506 11.2482Z" fill="white"/>
</svg>
