<svg width="62" height="60" viewBox="0 0 62 60" fill="none" xmlns="http://www.w3.org/2000/svg">
    <path d="M47.0163 36.288C51.7764 36.288 55.6352 32.4292 55.6352 27.6691C55.6352 22.9091 51.7764 19.0503 47.0163 19.0503C42.2563 19.0503 38.3975 22.9091 38.3975 27.6691C38.3975 32.4292 42.2563 36.288 47.0163 36.288Z" fill="white"/>
    <path d="M50.672 36.876H43.3588C37.2736 36.876 32.323 41.8284 32.323 47.9109V56.8559L32.3462 56.9958L32.9611 57.1883C38.7682 59.0019 43.8133 59.608 47.9645 59.608C56.0754 59.608 60.7756 57.2953 61.0662 57.1482L61.6419 56.8559H61.7025V47.9109C61.7052 41.8266 56.7554 36.876 50.672 36.876Z" fill="white"/>
    <path d="M15.0156 36.2885C19.7756 36.2885 23.6344 32.4297 23.6344 27.6696C23.6344 22.9096 19.7756 19.0508 15.0156 19.0508C10.2555 19.0508 6.39673 22.9096 6.39673 27.6696C6.39673 32.4297 10.2555 36.2885 15.0156 36.2885Z" fill="white"/>
    <path d="M18.6713 36.8765H11.3581C5.27291 36.8765 0.322266 41.8289 0.322266 47.9114V56.8564L0.345438 56.9963L0.960368 57.1888C6.76746 59.0024 11.8126 59.6084 15.9638 59.6084C24.0747 59.6084 28.7749 57.2958 29.0654 57.1487L29.6411 56.8564H29.7017V47.9114C29.7044 41.8271 24.7547 36.8765 18.6713 36.8765Z" fill="white"/>
    <path d="M39.2913 8.11531C38.8332 8.11531 38.3753 7.94053 38.0259 7.59097C35.8302 5.39445 32.9101 4.18476 29.8031 4.18476C26.6962 4.18476 23.776 5.39445 21.5804 7.59097C20.8817 8.28986 19.749 8.29009 19.0502 7.59153C18.3513 6.89298 18.3511 5.76011 19.0496 5.06133C21.9211 2.18851 25.7401 0.606445 29.8031 0.606445C33.8662 0.606445 37.6852 2.18851 40.5567 5.06133C41.2553 5.76022 41.2551 6.89298 40.5562 7.59153C40.2069 7.94064 39.7489 8.11531 39.2913 8.11531Z" fill="white"/>
    <path d="M34.8642 12.542C34.4062 12.542 33.9484 12.3674 33.599 12.0179C32.5857 11.0046 31.2375 10.4465 29.8031 10.4465C28.3686 10.4465 27.0205 11.0046 26.0072 12.018C25.3085 12.7167 24.1756 12.7168 23.477 12.018C22.7782 11.3194 22.7782 10.1865 23.477 9.48782C25.1662 7.79853 27.4128 6.86816 29.8031 6.86816C32.1934 6.86816 34.44 7.79853 36.1293 9.48782C36.828 10.1866 36.828 11.3194 36.1293 12.018C35.7799 12.3674 35.322 12.542 34.8642 12.542Z" fill="white"/>
    <path d="M29.8031 20.2874C28.3234 20.2874 27.1194 19.0834 27.1194 17.6037C27.1194 16.1239 28.3234 14.9199 29.8031 14.9199C31.2829 14.9199 32.4869 16.1239 32.4869 17.6037C32.4869 19.0834 31.2829 20.2874 29.8031 20.2874Z" fill="white"/>
</svg>
