<svg width="63" height="62" viewBox="0 0 63 62" fill="none" xmlns="http://www.w3.org/2000/svg">
    <path d="M12.425 14.2636C16.1694 14.2636 19.2048 11.2282 19.2048 7.48387C19.2048 3.73951 16.1694 0.704102 12.425 0.704102C8.68067 0.704102 5.64526 3.73951 5.64526 7.48387C5.64526 11.2282 8.68067 14.2636 12.425 14.2636Z" fill="white"/>
    <path d="M50.5409 0.704102C54.2855 0.704102 57.3202 3.73961 57.3202 7.48387C57.3202 11.2281 54.2855 14.2635 50.5409 14.2635C46.7961 14.2635 43.7607 11.228 43.7607 7.48387C43.7607 3.73973 46.7961 0.704102 50.5409 0.704102Z" fill="white"/>
    <path d="M55.6287 13.5547C54.294 14.801 52.5076 15.5699 50.5411 15.5699C48.5738 15.5699 46.7881 14.8003 45.4534 13.5547C42.5626 14.3177 40.2634 16.5355 39.3804 19.3723C36.8828 18.912 34.23 18.6625 31.4826 18.6625C28.735 18.6625 26.0825 18.912 23.585 19.3723C22.7022 16.5355 20.4019 14.3177 17.5123 13.5547C16.1769 14.8003 14.3912 15.5692 12.4242 15.5692C10.4576 15.5692 8.67161 14.8003 7.33663 13.5547C3.61957 14.5366 0.867676 17.918 0.867676 21.9385V28.9754L0.885336 29.0843L1.37075 29.236C2.88362 29.7085 4.32385 30.0683 5.70097 30.3498C5.06627 31.7106 4.71978 33.1427 4.71978 34.6222C4.71978 41.0118 11.0513 46.5331 20.1662 49.08C19.8298 50.0028 19.6429 50.9965 19.6429 52.0349V59.0718L19.661 59.1818L20.1461 59.3335C24.7132 60.7601 28.6822 61.2368 31.9492 61.2368C38.329 61.2368 42.0264 59.417 42.2546 59.3015L42.7083 59.0719H42.7564V52.035C42.7564 51.0482 42.5893 50.1018 42.2845 49.2187C51.6749 46.7379 58.2454 41.1303 58.2454 34.6223C58.2454 33.2123 57.9338 31.8464 57.3561 30.5444C59.9768 30.0023 61.4535 29.2767 61.5948 29.2048L62.0492 28.9748L62.0972 28.9755V21.9386C62.0979 17.918 59.3462 14.5366 55.6287 13.5547ZM56.3963 34.6222C56.3963 40.387 50.2565 45.3534 41.489 47.5408C40.3345 45.6507 38.4828 44.2305 36.2886 43.6522C34.9531 44.8978 33.1668 45.666 31.2005 45.666C29.2346 45.666 27.4479 44.8978 26.1126 43.6522C23.9671 44.2187 22.147 45.5881 20.9884 47.4155C12.482 45.1676 6.56984 40.2791 6.56984 34.6222C6.56984 33.2568 6.92021 31.9381 7.56186 30.6891C9.60994 31.0078 11.4867 31.1393 13.1736 31.1393C19.5532 31.1393 23.2512 29.3202 23.479 29.2047L23.9327 28.9746L23.9815 28.9754V21.9379C23.9815 21.6804 23.9692 21.4247 23.9471 21.1731C26.326 20.7441 28.857 20.5113 31.4828 20.5113C34.1092 20.5113 36.6408 20.7441 39.0194 21.1731C38.9973 21.4254 38.9847 21.6804 38.9847 21.9386V28.9755L39.0027 29.0851L39.4884 29.2368C44.0548 30.6627 48.0242 31.1394 51.29 31.1394C52.8573 31.1394 54.2595 31.0301 55.4912 30.8618C56.0769 32.0598 56.3963 33.3193 56.3963 34.6222Z" fill="white"/>
    <path d="M31.2006 44.3606C34.9447 44.3606 37.98 41.3253 37.98 37.5812C37.98 33.837 34.9447 30.8018 31.2006 30.8018C27.4564 30.8018 24.4211 33.837 24.4211 37.5812C24.4211 41.3253 27.4564 44.3606 31.2006 44.3606Z" fill="white"/>
</svg>
