<svg width="290" height="290" viewBox="0 0 290 290" fill="none" xmlns="http://www.w3.org/2000/svg">
    <path fill-rule="evenodd" clip-rule="evenodd" d="M40.668 41.521V72.2651C40.668 89.2166 54.462 103.007 71.4173 103.007H134.499L160.063 88.2512H71.4173C62.5997 88.2512 55.4276 81.0792 55.4276 72.2651V56.2785H182.907C191.935 56.2785 196.8 62.3828 198.344 68.0954C199.887 73.8093 198.758 81.5338 190.956 86.0778L57.6039 163.755C48.1906 169.239 42.6147 178.495 42.3085 189.149C42.3047 189.258 42.311 189.365 42.3097 189.474L198.387 98.8289C210.556 91.7399 216.265 77.8443 212.593 64.25C209.034 51.0716 197.708 42.1116 184.189 41.5734C183.911 41.541 183.63 41.521 183.344 41.521H40.668Z" fill="url(#paint0_linear)"/>
    <path fill-rule="evenodd" clip-rule="evenodd" d="M57.6133 210.483C45.4449 217.572 39.7355 231.468 43.4076 245.062C46.9669 258.24 58.292 267.2 71.8109 267.739C72.0891 267.771 72.3704 267.791 72.6568 267.791H215.333V237.047C215.333 220.095 201.539 206.305 184.583 206.305H121.502L95.9377 221.061H184.583C193.4 221.061 200.573 228.233 200.573 237.047V253.033H73.0934C64.0656 253.033 59.1996 246.929 57.657 241.217C56.1132 235.503 57.2434 227.778 65.0437 223.234L198.397 145.557C207.809 140.073 213.386 130.817 213.692 120.163C213.696 120.054 213.69 119.947 213.691 119.838L57.6133 210.483Z" fill="url(#paint1_linear)"/>
    <path opacity="0.4" fill-rule="evenodd" clip-rule="evenodd" d="M40.668 41.521V72.2651C40.668 89.2166 54.462 103.007 71.4173 103.007H134.499L160.063 88.2512H71.4173C62.5997 88.2512 55.4276 81.0792 55.4276 72.2651V56.2785H182.907C191.935 56.2785 196.8 62.3828 198.344 68.0954C199.887 73.8093 198.758 81.5338 190.956 86.0778L57.6039 163.755C48.1906 169.239 42.6147 178.495 42.3085 189.149C42.3047 189.258 42.311 189.365 42.3097 189.474L198.387 98.8289C210.556 91.7399 216.265 77.8443 212.593 64.25C209.034 51.0716 197.708 42.1116 184.189 41.5734C183.911 41.541 183.63 41.521 183.344 41.521H40.668Z" fill="url(#paint2_linear)"/>
    <path opacity="0.4" fill-rule="evenodd" clip-rule="evenodd" d="M57.6133 210.483C45.4449 217.572 39.7355 231.468 43.4076 245.062C46.9669 258.24 58.292 267.2 71.8109 267.739C72.0891 267.771 72.3704 267.791 72.6568 267.791H215.333V237.047C215.333 220.095 201.539 206.305 184.583 206.305H121.502L95.9377 221.061H184.583C193.4 221.061 200.573 228.233 200.573 237.047V253.033H73.0934C64.0656 253.033 59.1996 246.929 57.657 241.217C56.1132 235.503 57.2434 227.778 65.0437 223.234L198.397 145.557C207.809 140.073 213.386 130.817 213.692 120.163C213.696 120.054 213.69 119.947 213.691 119.838L57.6133 210.483Z" fill="url(#paint3_linear)"/>
    <rect x="145.246" y="182.4" width="144.742" height="107.175" fill="#161544"/>
    <rect y="0.544434" width="144.742" height="107.175" fill="#161544"/>
    <defs>
        <linearGradient id="paint0_linear" x1="127.181" y1="41.521" x2="127.181" y2="189.474" gradientUnits="userSpaceOnUse">
            <stop stop-color="#CE5D47"/>
            <stop offset="0.255208" stop-color="#F2C94C"/>
            <stop offset="0.645833" stop-color="#83B17E"/>
            <stop offset="1" stop-color="#5C95CD"/>
        </linearGradient>
        <linearGradient id="paint1_linear" x1="128.82" y1="48.1354" x2="38.7974" y2="253.701" gradientUnits="userSpaceOnUse">
            <stop stop-color="#CF6446"/>
            <stop offset="0.375" stop-color="#F2C94C"/>
            <stop offset="0.65625" stop-color="#97C254"/>
            <stop offset="1" stop-color="#50A7D0"/>
        </linearGradient>
        <linearGradient id="paint2_linear" x1="127.181" y1="96.7341" x2="127.181" y2="208.711" gradientUnits="userSpaceOnUse">
            <stop stop-color="#CC5C47"/>
            <stop offset="0.416667" stop-color="#B3CE47"/>
            <stop offset="1" stop-color="#619CD1"/>
        </linearGradient>
        <linearGradient id="paint3_linear" x1="128.82" y1="119.838" x2="128.82" y2="267.791" gradientUnits="userSpaceOnUse">
            <stop stop-color="#E5E5E5"/>
            <stop offset="1" stop-color="#E5E5E5" stop-opacity="0"/>
        </linearGradient>
    </defs>
</svg>
