<svg width="31" height="40" viewBox="0 0 31 40" fill="none" xmlns="http://www.w3.org/2000/svg">
    <path fill-rule="evenodd" clip-rule="evenodd" d="M-0.00012207 0.417969V5.77506C-0.00012207 8.72881 2.44809 11.1318 5.45738 11.1318H16.6534L21.1905 8.56059H5.45738C3.8924 8.56059 2.61947 7.31088 2.61947 5.77506V2.98942H25.245C26.8473 2.98942 27.7108 4.05308 27.9847 5.04849C28.2586 6.04412 28.0582 7.3901 26.6736 8.18187L3.00573 21.7169C1.33503 22.6725 0.3454 24.2853 0.291042 26.1418C0.290378 26.1607 0.291485 26.1794 0.291263 26.1983L27.9925 10.4037C30.1522 9.16848 31.1655 6.74722 30.5138 4.37843C29.8821 2.08214 27.8719 0.520879 25.4725 0.427097C25.4231 0.421446 25.3733 0.417969 25.3225 0.417969H-0.00012207Z" fill="white"/>
    <path fill-rule="evenodd" clip-rule="evenodd" d="M3.00746 29.86C0.847754 31.0953 -0.165563 33.5165 0.486179 35.8853C1.11788 38.1816 3.12791 39.7429 5.5273 39.8367C5.57668 39.8423 5.62661 39.8458 5.67742 39.8458H31V34.4888C31 31.5349 28.5518 29.1319 25.5425 29.1319H14.3467L9.8094 31.7032H25.5425C27.1074 31.7032 28.3805 32.9529 28.3805 34.4888V37.2743H5.75492C4.15263 37.2743 3.28899 36.2107 3.01521 35.2153C2.7412 34.2196 2.94181 32.8736 4.32622 32.0819L27.9942 18.5469C29.6648 17.5912 30.6545 15.9785 30.7089 14.1219C30.7095 14.103 30.7084 14.0843 30.7088 14.0654L3.00746 29.86Z" fill="white"/>
</svg>
