<svg xmlns="http://www.w3.org/2000/svg" viewBox="0 0 88 47" width="88" height="47">
	<style>
		tspan { white-space:pre }
		.shp0 { opacity: 0.4;fill: #0f0a1e } 
		.shp1 { fill: #ffffff } 
	</style>
	<g id="Page-1">
		<g id="102">
			<g id="zaphire-live-logo">
				<path id="Path" class="shp0" d="M0.75 9.75C0.75 4.41 5.08 0.07 10.43 0.07L78.26 0.07C83.6 0.07 87.94 4.41 87.94 9.75L87.94 29.99C87.94 31.33 87.62 32.64 87.01 33.83L83.11 41.42C81.45 44.65 78.13 46.68 74.5 46.68L10.43 46.68C5.08 46.68 0.75 42.34 0.75 37L0.75 9.75Z"/>
				<path id="Shape" fill-rule="evenodd" class="shp1" d="M20.94 34.04L20.94 11.73L24.88 11.73L24.88 34.04L20.94 34.04ZM30.45 16.92C29.8 16.92 29.23 16.69 28.74 16.22C28.27 15.73 28.03 15.16 28.03 14.51C28.03 13.86 28.27 13.29 28.74 12.8C29.23 12.31 29.8 12.06 30.45 12.06C31.12 12.06 31.69 12.31 32.16 12.8C32.65 13.29 32.89 13.86 32.89 14.51C32.89 15.16 32.65 15.73 32.16 16.22C31.69 16.69 31.12 16.92 30.45 16.92ZM28.49 34.04L28.49 18.76L32.43 18.76L32.43 34.04L28.49 34.04ZM46.1 18.76L50.44 18.76L44.63 34.04L40.14 34.04L34.33 18.76L38.67 18.76L42.37 29.45L46.1 18.76ZM55.07 28.02C55.6 29.93 57.04 30.89 59.38 30.89C60.89 30.89 62.03 30.38 62.8 29.36L65.98 31.2C64.47 33.38 62.25 34.47 59.32 34.47C56.79 34.47 54.77 33.7 53.24 32.17C51.71 30.65 50.95 28.72 50.95 26.4C50.95 24.1 51.7 22.18 53.21 20.65C54.72 19.1 56.65 18.33 59.01 18.33C61.26 18.33 63.1 19.1 64.55 20.65C66.01 22.2 66.75 24.12 66.75 26.4C66.75 26.91 66.69 27.45 66.59 28.02L55.07 28.02ZM55.01 24.96L62.8 24.96C62.58 23.92 62.11 23.15 61.4 22.64C60.7 22.13 59.91 21.87 59.01 21.87C57.95 21.87 57.08 22.15 56.39 22.7C55.69 23.23 55.23 23.98 55.01 24.96Z"/>
			</g>
		</g>
	</g>
</svg>